<svg width="512" height="512" viewBox="0 0 512 512" fill="none" xmlns="http://www.w3.org/2000/svg">
<g clip-path="url(#clip0_403_463)">
<path d="M256 0C114.616 0 0 114.616 0 256C0 376.054 82.6573 476.795 194.161 504.463V334.234H141.373V256H194.161V222.29C194.161 135.158 233.595 94.7712 319.14 94.7712C335.36 94.7712 363.346 97.9558 374.794 101.13V172.042C368.753 171.407 358.257 171.09 345.221 171.09C303.247 171.09 287.027 186.993 287.027 228.332V256H370.647L356.28 334.234H287.027V510.126C413.788 494.817 512.01 386.888 512.01 256C512 114.616 397.384 0 256 0Z" fill="#0A294F"/>
</g>
<defs>
<clipPath id="clip0_403_463">
<rect width="512" height="512" fill="white"/>
</clipPath>
</defs>
</svg>
