<svg width="512" height="512" viewBox="0 0 512 512" fill="none" xmlns="http://www.w3.org/2000/svg">
<g clip-path="url(#clip0_403_466)">
<path d="M256 46.1C324.4 46.1 332.5 46.4 359.4 47.6C384.4 48.7 397.9 52.9 406.9 56.4C418.8 61 427.4 66.6 436.3 75.5C445.3 84.5 450.8 93 455.4 104.9C458.9 113.9 463.1 127.5 464.2 152.4C465.4 179.4 465.7 187.5 465.7 255.8C465.7 324.2 465.4 332.3 464.2 359.2C463.1 384.2 458.9 397.7 455.4 406.7C450.8 418.6 445.2 427.2 436.3 436.1C427.3 445.1 418.8 450.6 406.9 455.2C397.9 458.7 384.3 462.9 359.4 464C332.4 465.2 324.3 465.5 256 465.5C187.6 465.5 179.5 465.2 152.6 464C127.6 462.9 114.1 458.7 105.1 455.2C93.2 450.6 84.6 445 75.7 436.1C66.7 427.1 61.2 418.6 56.6 406.7C53.1 397.7 48.9 384.1 47.8 359.2C46.6 332.2 46.3 324.1 46.3 255.8C46.3 187.4 46.6 179.3 47.8 152.4C48.9 127.4 53.1 113.9 56.6 104.9C61.2 93 66.8 84.4 75.7 75.5C84.7 66.5 93.2 61 105.1 56.4C114.1 52.9 127.7 48.7 152.6 47.6C179.5 46.4 187.6 46.1 256 46.1ZM256 0C186.5 0 177.8 0.3 150.5 1.5C123.3 2.7 104.6 7.1 88.4 13.4C71.5 20 57.2 28.7 43 43C28.7 57.2 20 71.5 13.4 88.3C7.1 104.6 2.7 123.2 1.5 150.4C0.3 177.8 0 186.5 0 256C0 325.5 0.3 334.2 1.5 361.5C2.7 388.7 7.1 407.4 13.4 423.6C20 440.5 28.7 454.8 43 469C57.2 483.2 71.5 492 88.3 498.5C104.6 504.8 123.2 509.2 150.4 510.4C177.7 511.6 186.4 511.9 255.9 511.9C325.4 511.9 334.1 511.6 361.4 510.4C388.6 509.2 407.3 504.8 423.5 498.5C440.3 492 454.6 483.2 468.8 469C483 454.8 491.8 440.5 498.3 423.7C504.6 407.4 509 388.8 510.2 361.6C511.4 334.3 511.7 325.6 511.7 256.1C511.7 186.6 511.4 177.9 510.2 150.6C509 123.4 504.6 104.7 498.3 88.5C492 71.5 483.3 57.2 469 43C454.8 28.8 440.5 20 423.7 13.5C407.4 7.2 388.8 2.8 361.6 1.6C334.2 0.3 325.5 0 256 0Z" fill="#0A294F"/>
<path d="M256 124.5C183.4 124.5 124.5 183.4 124.5 256C124.5 328.6 183.4 387.5 256 387.5C328.6 387.5 387.5 328.6 387.5 256C387.5 183.4 328.6 124.5 256 124.5ZM256 341.3C208.9 341.3 170.7 303.1 170.7 256C170.7 208.9 208.9 170.7 256 170.7C303.1 170.7 341.3 208.9 341.3 256C341.3 303.1 303.1 341.3 256 341.3Z" fill="#0A294F"/>
<path d="M423.4 119.299C423.4 136.299 409.6 149.999 392.7 149.999C375.7 149.999 362 136.199 362 119.299C362 102.299 375.8 88.5991 392.7 88.5991C409.6 88.5991 423.4 102.399 423.4 119.299Z" fill="#0A294F"/>
</g>
<defs>
<clipPath id="clip0_403_466">
<rect width="512" height="512" fill="white"/>
</clipPath>
</defs>
</svg>
