<svg width="512" height="512" viewBox="0 0 512 512" fill="none" xmlns="http://www.w3.org/2000/svg">
<g clip-path="url(#clip0_403_471)">
<path d="M474.1 0H37.8C16.9 0 0 16.5 0 36.9V475C0 495.4 16.9 512 37.8 512H474.1C495 512 512 495.4 512 475.1V36.9C512 16.5 495 0 474.1 0ZM151.9 436.3H75.9V191.9H151.9V436.3ZM113.9 158.6C89.5 158.6 69.8 138.9 69.8 114.6C69.8 90.3 89.5 70.6 113.9 70.6C138.2 70.6 157.9 90.3 157.9 114.6C157.9 138.8 138.2 158.6 113.9 158.6ZM436.3 436.3H360.4V317.5C360.4 289.2 359.9 252.7 320.9 252.7C281.4 252.7 275.4 283.6 275.4 315.5V436.3H199.6V191.9H272.4V225.3H273.4C283.5 206.1 308.3 185.8 345.2 185.8C422.1 185.8 436.3 236.4 436.3 302.2V436.3V436.3Z" fill="#0A294F"/>
</g>
<defs>
<clipPath id="clip0_403_471">
<rect width="512" height="512" fill="white"/>
</clipPath>
</defs>
</svg>
